HIERARCHY
ROOT hip
{
	OFFSET 0.000000 0.000000 0.000000 
	CHANNELS 6 Xposition Yposition Zposition Xrotation Zrotation Yrotation
	JOINT abdomen
	{
		OFFSET 0.000000 3.402643 0.000000 
		CHANNELS 3 Xrotation Zrotation Yrotation
		JOINT chest
		{
			OFFSET 0.000000 8.438565 -0.680529 
			CHANNELS 3 Xrotation Zrotation Yrotation
			JOINT neck
			{
				OFFSET 0.000000 10.207942 -0.272212 
				CHANNELS 3 Xrotation Zrotation Yrotation
				JOINT head
				{
					OFFSET 0.000000 3.130431 0.000000 
					CHANNELS 3 Xrotation Zrotation Yrotation
					End Site
					{
						OFFSET 0.000000 3.130435 0.000000 
					}
				}
			}
			JOINT lCollar
			{
				OFFSET 3.470700 6.669187 -0.816635 
				CHANNELS 3 Yrotation Zrotation Xrotation
				JOINT lShldr
				{
					OFFSET 3.198488 0.000000 0.000000 
					CHANNELS 3 Zrotation Yrotation Xrotation
					JOINT lForeArm
					{
						OFFSET 10.139888 0.000000 0.000000 
						CHANNELS 3 Yrotation Zrotation Xrotation
						JOINT lHand
						{
							OFFSET 8.370511 0.000000 0.000000 
							CHANNELS 3 Zrotation Yrotation Xrotation
							End Site
							{
								OFFSET 4.083176 0.000000 0.000000 
							}
						}
					}
				}
			}
			JOINT rCollar
			{
				OFFSET -3.470700 6.669187 -0.816635 
				CHANNELS 3 Yrotation Zrotation Xrotation
				JOINT rShldr
				{
					OFFSET -3.198488 0.000000 0.000000 
					CHANNELS 3 Zrotation Yrotation Xrotation
					JOINT rForeArm
					{
						OFFSET -10.139888 0.000000 0.000000 
						CHANNELS 3 Yrotation Zrotation Xrotation
						JOINT rHand
						{
							OFFSET -8.370511 0.000000 0.000000 
							CHANNELS 3 Zrotation Yrotation Xrotation
							End Site
							{
								OFFSET -4.083176 0.000000 0.000000 
							}
						}
					}
				}
			}
		}
	}
	JOINT lThigh
	{
		OFFSET 5.308129 -1.633274 1.361059 
		CHANNELS 3 Xrotation Zrotation Yrotation
		JOINT lShin
		{
			OFFSET -2.041588 -20.007561 0.000000 
			CHANNELS 3 Xrotation Zrotation Yrotation
			JOINT lFoot
			{
				OFFSET 0.000000 -19.190928 -1.224953 
				CHANNELS 3 Xrotation Yrotation Zrotation
				End Site
				{
					OFFSET 0.000000 -2.449906 4.627600 
				}
			}
		}
	}
	JOINT rThigh
	{
		OFFSET -5.308129 -1.633274 1.361059 
		CHANNELS 3 Xrotation Zrotation Yrotation
		JOINT rShin
		{
			OFFSET 2.041588 -20.007561 0.000000 
			CHANNELS 3 Xrotation Zrotation Yrotation
			JOINT rFoot
			{
				OFFSET 0.000000 -19.190928 -1.224953 
				CHANNELS 3 Xrotation Yrotation Zrotation
				End Site
				{
					OFFSET 0.000000 -2.449906 4.627600 
				}
			}
		}
	}
}
MOTION
Frames: 6
Frame Time: 0.016667
35.757118 38.957691 84.836433 -5.760800 -5.139720 84.760475 50.527912 -2.695297 0.195096 -2.167194 6.456094 5.377000 -34.582924 -1.032416 -4.170651 10.542113 6.111545 -3.525417 14.910957 -15.332617 -0.077968 -63.599129 -16.423872 23.587307 -115.782700 3.720534 47.914680 -7.075033 11.672380 -1.504864 -13.280007 1.874208 -0.038317 42.690514 10.319530 -28.843994 44.393105 0.520396 -8.192640 -25.601072 0.869900 -0.557448 -67.043938 22.684399 -12.693970 63.126785 0.764955 -3.852720 20.360489 -20.522522 -5.252057 -3.223486 -29.100809 -22.686661 65.617165 -1.284835 3.443950 4.559077 -29.179504 13.662864 
35.949375 39.220604 85.104454 -6.180565 -4.518587 87.744637 50.002686 -2.822215 0.341863 -2.175375 5.657080 5.555210 -33.236485 -0.349816 -5.713022 11.066142 6.900070 -4.769991 15.201694 -15.744153 -0.155710 -63.421619 -15.921994 23.809973 -114.010773 3.808052 48.807968 -6.046815 11.643647 -1.243603 -14.960506 0.530183 -0.047261 36.681087 14.997254 -36.218277 45.557575 0.378704 -6.204160 -26.041975 0.914355 -0.642255 -66.385864 21.199722 -13.127241 61.696396 0.762688 -3.688192 20.856716 -21.514324 -4.652555 -0.577245 -27.058655 -24.048496 64.568184 -1.197020 3.352723 5.251000 -30.485197 14.079366 
35.998280 39.362862 85.148422 -6.004417 -4.078856 89.410408 49.735401 -2.812338 0.615931 -2.191316 4.421995 5.632347 -32.559895 0.174542 -6.806668 11.329826 6.987505 -5.666247 15.707275 -15.962140 -0.125547 -63.286156 -15.841263 22.981422 -112.203125 3.760575 48.099495 -4.972045 12.297103 -1.080358 -16.807501 -0.741953 -0.065434 29.054958 22.444773 -44.320442 47.126125 0.149367 -4.035026 -26.421898 1.631567 -0.952033 -65.587608 19.803787 -13.222985 60.834740 0.687764 -3.791372 20.833923 -21.495279 -4.652258 0.213292 -26.795080 -24.531460 64.655647 -1.196923 3.365705 5.741896 -30.482025 14.211286 
36.046272 39.504093 85.190857 -5.805126 -3.638204 91.058952 49.467739 -2.802389 0.899273 -2.209142 3.196916 5.721942 -31.896332 0.715780 -7.910755 11.582066 7.073088 -6.552801 16.206007 -16.176891 -0.086493 -63.155830 -15.746419 22.150381 -110.390793 3.676091 47.383015 -3.884952 12.957561 -0.899206 -18.656628 -2.019939 -0.120209 19.847771 28.712166 -53.923862 48.725197 -0.028454 -1.869032 -26.794863 2.340621 -1.257740 -64.798370 18.407478 -13.337707 59.953495 0.618734 -3.889477 20.819515 -21.475521 -4.672715 0.994914 -26.542202 -25.000116 64.753235 -1.197040 3.369291 6.236024 -30.485159 14.334329 
36.002953 39.543243 85.079895 -4.934372 -3.554526 91.032005 49.457378 -3.114359 1.359131 -2.573594 1.699448 6.057517 -31.747194 1.591338 -9.036470 11.587728 6.633746 -7.432384 16.485115 -16.005735 -0.065698 -63.170021 -15.764331 20.779526 -108.245346 3.528420 44.629711 -2.144773 14.129744 -0.560223 -20.209539 -3.469108 -0.073182 8.835241 35.148010 -62.948853 51.985954 -0.279082 0.384970 -26.760807 1.477701 -0.865214 -63.848026 17.440664 -13.046535 59.319420 0.598644 -3.873556 20.954634 -20.914095 -4.890267 0.555966 -28.036287 -24.879229 65.536476 -1.294402 3.242095 6.852117 -29.984056 14.647645 
35.959724 39.581669 84.969139 -4.053517 -3.463646 90.994789 49.442005 -3.426010 1.819578 -2.944778 0.213502 6.406314 -31.604939 2.470414 -10.165652 11.587215 6.194547 -8.310088 16.754324 -15.834395 -0.047645 -63.184879 -15.788754 19.412441 -106.099213 3.274940 41.893158 -0.385829 15.292164 -0.175810 -21.753532 -4.925840 -0.063258 -4.162908 39.866505 -74.034225 55.263283 -0.400554 2.653944 -26.732174 0.631877 -0.482192 -62.939754 16.473932 -12.763356 58.723919 0.588959 -3.863364 21.069536 -20.353773 -5.142142 0.105156 -29.526487 -24.734591 66.338974 -1.382648 3.129286 7.436020 -29.535192 14.952676 
